<svg width="69" height="69" viewBox="0 0 69 69" fill="none" xmlns="http://www.w3.org/2000/svg">
<g clip-path="url(#clip0_63_655)">
<path d="M54.6392 21.4299C55.5108 20.5542 56.0001 19.3689 56 18.1333C55.9975 17.3468 55.7709 16.5772 55.3467 15.9148L50.6949 8.60213C49.6688 6.98664 47.8899 6.0057 45.976 6H10.024C8.11196 6.00529 6.33436 6.98433 5.30787 8.59747L0.653333 15.9157C0.228983 16.5777 0.00233222 17.347 0 18.1333C0.000709137 19.3733 0.493492 20.5623 1.37013 21.4392C1.78395 21.8446 2.26858 22.1708 2.8 22.4015V41.4667C1.43786 41.4641 0.272458 42.4443 0.0416385 43.7868C-0.189181 45.1292 0.581889 46.4424 1.86667 46.8949V56.5717C0.581889 57.0243 -0.189181 58.3375 0.0416385 59.6799C0.272458 61.0224 1.43786 62.0026 2.8 62H53.2C54.5621 62.0026 55.7275 61.0224 55.9584 59.6799C56.1892 58.3375 55.4181 57.0243 54.1333 56.5717V46.8949C55.4181 46.4424 56.1892 45.1292 55.9584 43.7868C55.7275 42.4443 54.5621 41.4641 53.2 41.4667V22.4005C53.7349 22.1674 54.2226 21.8384 54.6392 21.4299ZM53.3195 20.1101C52.7923 20.6363 52.0782 20.9323 51.3333 20.9333H48.5333C46.9869 20.9333 45.7333 19.6797 45.7333 18.1333H54.1333C54.1332 18.8738 53.8407 19.5842 53.3195 20.1101ZM43.9908 41.4667L44.7925 35.0491C44.8257 34.7835 44.7433 34.5164 44.5662 34.3157C44.3891 34.1151 44.1343 34.0001 43.8667 34H38.2667C37.999 34.0001 37.7443 34.1151 37.5672 34.3157C37.39 34.5164 37.3076 34.7835 37.3408 35.0491L38.1425 41.4667H30.8V37.7333C30.8 36.7024 29.9643 35.8667 28.9333 35.8667H18.6667V32.1333H19.6C20.6309 32.1333 21.4667 31.2976 21.4667 30.2667V28.4C21.4667 27.3691 20.6309 26.5333 19.6 26.5333H12.1333C11.1024 26.5333 10.2667 27.3691 10.2667 28.4V30.2667C10.2667 31.2976 11.1024 32.1333 12.1333 32.1333H13.0667V35.8667H12.1333C11.1024 35.8667 10.2667 36.7024 10.2667 37.7333V41.4667H8.4V22.7067C9.52327 22.4714 10.5203 21.83 11.2 20.9053C12.0737 22.0931 13.4589 22.7961 14.9333 22.8H18.6667C20.1413 22.7959 21.5265 22.0925 22.4 20.9044C23.2735 22.0925 24.6587 22.7959 26.1333 22.8H29.8667C31.3413 22.7959 32.7265 22.0925 33.6 20.9044C34.4735 22.0925 35.8587 22.7959 37.3333 22.8H41.0667C42.5413 22.7959 43.9265 22.0925 44.8 20.9044C45.4797 21.8291 46.4767 22.4705 47.6 22.7057V41.4667H43.9908ZM39.3241 35.8667H42.8092L42.1092 41.4667H40.0241L39.3241 35.8667ZM17.7333 30.2667H12.1333V28.4H19.6V30.2667H17.7333ZM14.9333 32.1333H16.8V35.8667H14.9333V32.1333ZM14 37.7333H28.9333V41.4667H12.1333V37.7333H14ZM43.8667 18.1333C43.8667 19.6797 42.6131 20.9333 41.0667 20.9333H37.3333C35.7869 20.9333 34.5333 19.6797 34.5333 18.1333H43.8667ZM32.6667 18.1333C32.6667 19.6797 31.4131 20.9333 29.8667 20.9333H26.1333C24.5869 20.9333 23.3333 19.6797 23.3333 18.1333H32.6667ZM12.1333 18.1333H21.4667C21.4667 19.6797 20.2131 20.9333 18.6667 20.9333H14.9333C13.3869 20.9333 12.1333 19.6797 12.1333 18.1333ZM6.8852 9.5952C7.56852 8.52176 8.75152 7.87027 10.024 7.86667H45.976C47.2504 7.87034 48.4349 8.5238 49.1176 9.59987L53.3615 16.2667H45.4281L43.8004 12.1861C43.6086 11.7073 43.065 11.4745 42.5861 11.6663C42.1073 11.858 41.8745 12.4017 42.0663 12.8805L43.4215 16.2667H34.5333V14.4C34.5333 13.8845 34.1155 13.4667 33.6 13.4667C33.0845 13.4667 32.6667 13.8845 32.6667 14.4V16.2667H23.3333V14.4C23.3333 13.8845 22.9155 13.4667 22.4 13.4667C21.8845 13.4667 21.4667 13.8845 21.4667 14.4V16.2667H12.5785L13.9337 12.8805C14.0578 12.5708 14.0071 12.2183 13.8009 11.956C13.5946 11.6937 13.2641 11.5614 12.9338 11.6088C12.6035 11.6563 12.3236 11.8764 12.1996 12.1861L10.5681 16.2667H2.6348L6.8852 9.5952ZM1.86666 18.1333H10.2667C10.2667 19.6797 9.01306 20.9333 7.46667 20.9333H4.66667C3.9236 20.9348 3.21055 20.6403 2.68512 20.1149C2.1597 19.5895 1.86518 18.8764 1.86666 18.1333ZM4.66667 22.8H6.53333V41.4667H4.66667V22.8ZM52.2667 56.4H3.73333V47.0667H52.2667V56.4ZM53.2 60.1333H2.8C2.28453 60.1333 1.86667 59.7155 1.86667 59.2C1.86667 58.6845 2.28453 58.2667 2.8 58.2667H53.2C53.7155 58.2667 54.1333 58.6845 54.1333 59.2C54.1333 59.7155 53.7155 60.1333 53.2 60.1333ZM54.1333 44.2667C54.1333 44.7821 53.7155 45.2 53.2 45.2H2.8C2.28453 45.2 1.86667 44.7821 1.86667 44.2667C1.86667 43.7512 2.28453 43.3333 2.8 43.3333H53.2C53.7155 43.3333 54.1333 43.7512 54.1333 44.2667ZM51.3333 41.4667H49.4667V22.8H51.3333V41.4667Z" fill="#14BBEA"/>
</g>
<defs>
<clipPath id="clip0_63_655">
<rect width="56" height="56" fill="white" transform="translate(0 6)"/>
</clipPath>
</defs>
</svg>
