<svg width="52" height="58" viewBox="0 0 52 58" fill="none" xmlns="http://www.w3.org/2000/svg">
<path d="M16.4036 46.2351C16.2182 46.1953 16.0261 46.2287 15.8604 46.3297C15.6947 46.4307 15.5657 46.5929 15.4956 46.7884L12.2456 55.8509L13.7544 56.5241L15.4375 51.8308V56.1875H17.0625V47.125C17.0625 46.9144 16.9967 46.7103 16.8765 46.5479C16.7562 46.3855 16.589 46.2749 16.4036 46.2351Z" fill="#14BBEA"/>
<path d="M50.375 9.0625C50.3731 7.14035 49.6876 5.29755 48.469 3.93838C47.2505 2.57922 45.5983 1.81468 43.875 1.8125H35.75C34.1687 1.81144 32.6418 2.45619 31.4576 3.625H27.625C26.9397 3.6248 26.262 3.78617 25.6365 4.09853C25.0109 4.41089 24.4517 4.86719 23.9953 5.4375H22.5345C22.6777 4.99096 22.7506 4.52018 22.75 4.04593V2.71875C22.75 2.59974 22.729 2.48189 22.6882 2.37194C22.6473 2.26199 22.5875 2.16208 22.512 2.07793C22.4366 1.99377 22.347 1.92702 22.2484 1.88148C22.1499 1.83594 22.0442 1.8125 21.9375 1.8125H14.972C14.4974 1.81249 14.0306 1.94781 13.616 2.20561C13.2015 2.4634 12.8529 2.83511 12.6034 3.28545C12.3538 3.73578 12.2116 4.24979 12.1903 4.77865C12.169 5.30751 12.2692 5.83368 12.4815 6.30719L12.9996 7.46312L12.9999 13.5938H9.54534C7.96481 13.5938 6.42043 14.1212 5.11085 15.1082C3.80128 16.0952 2.7864 17.4967 2.19678 19.1323C1.60715 20.768 1.46975 22.563 1.80224 24.2864C2.13473 26.0099 2.9219 27.5829 4.0625 28.8033V56.1875H5.6875V41.6875H24.375V56.1875H26V28.3681L26.8315 26.9768L29.4912 29.2018C30.7426 30.2441 32.2617 30.8089 33.8234 30.8125C35.0488 30.8168 36.2548 30.4713 37.3265 29.8087C38.3983 29.1462 39.3002 28.1887 39.9464 27.0274L46.2267 15.8194C47.4474 15.2895 48.4963 14.3611 49.2365 13.1556C49.9766 11.9501 50.3734 10.5236 50.375 9.0625ZM35.75 3.625H39.5826C38.889 4.30403 38.3333 5.14031 37.9526 6.07799C37.5719 7.01567 37.375 8.03316 37.375 9.0625C37.375 10.0918 37.5719 11.1093 37.9526 12.047C38.3333 12.9847 38.889 13.821 39.5826 14.5H35.75C35.2979 14.5004 34.848 14.4305 34.4132 14.2923L35.2995 12.8094C35.5009 12.4725 35.6388 12.0935 35.705 11.6954C35.7712 11.2972 35.7643 10.8883 35.6846 10.4933C35.605 10.0982 35.4543 9.72532 35.2417 9.39715C35.029 9.06898 34.7589 8.79236 34.4476 8.58404L31.4239 6.56052C31.8351 5.67653 32.456 4.93535 33.2188 4.41774C33.9816 3.90012 34.8571 3.62592 35.75 3.625ZM13.476 15.4063L15.0131 17.1207L13.5817 18.318L13.1466 15.4063H13.476ZM20.3125 12.6875H23.9885C24.2708 13.0398 24.5932 13.3495 24.9476 13.6085C24.8091 13.5997 24.6706 13.5938 24.5324 13.5938H19.5V13.5903C19.8077 13.3337 20.0812 13.0297 20.3123 12.6875H20.3125ZM17.4869 17.1207L19.024 15.4063H19.3534L18.9183 18.318L17.4869 17.1207ZM16.25 15.9371L14.625 14.1246L14.6249 13.5914C15.4671 14.3007 16.525 14.6136 17.5716 14.463L16.25 15.9371ZM16.25 18.3516L16.9928 18.9729L16.5604 19.9375H15.9396L15.5072 18.9729L16.25 18.3516ZM16.1258 21.75H16.3742L16.9795 25.8005L16.9086 25.9059L15.6659 24.8278L16.1258 21.75ZM18.3274 23.796L17.9074 20.9855L18.3141 20.0782L19.0125 20.6625C19.1241 20.7559 19.2554 20.8156 19.3937 20.836C19.532 20.8563 19.6727 20.8366 19.8022 20.7787C19.9317 20.7209 20.0456 20.6268 20.1331 20.5056C20.2205 20.3843 20.2785 20.24 20.3014 20.0865L21.0008 15.4063H23.9688L18.3274 23.796ZM29.9767 11.2803L31.2093 8.53061L33.6115 10.1382C33.7343 10.2204 33.8408 10.3294 33.9246 10.4588C34.0084 10.5882 34.0678 10.7352 34.0992 10.8909C34.1306 11.0467 34.1334 11.2079 34.1073 11.3648C34.0812 11.5218 34.0268 11.6712 33.9474 11.804L31.11 16.5512L27.2812 13.5008L27.4625 13.2312C27.568 13.0744 27.625 12.8836 27.625 12.6875V10.1827C27.625 10.1345 27.6396 10.0877 27.6664 10.0499C27.6932 10.0121 27.7307 9.98555 27.7727 9.97447C27.8148 9.9634 27.859 9.96849 27.8981 9.98891C27.9372 10.0093 27.969 10.0439 27.9884 10.087L28.5233 11.2803C28.5908 11.4308 28.6945 11.5574 28.8229 11.6459C28.9512 11.7344 29.0991 11.7813 29.25 11.7813C29.4009 11.7813 29.5488 11.7344 29.6772 11.6459C29.8055 11.5574 29.9092 11.4308 29.9767 11.2803ZM33.4781 15.8567C34.2046 16.16 34.9743 16.3144 35.75 16.3125H36.7874L34.7033 20.3805L32.1409 18.094L33.4781 15.8567ZM27.625 5.4375H30.1245C29.5859 6.47252 29.2871 7.64097 29.2551 8.83717L29.226 8.90226C28.9889 8.57803 28.6677 8.34355 28.3064 8.23099C27.9452 8.11843 27.5615 8.1333 27.2081 8.27357C26.8547 8.41383 26.5489 8.67262 26.3326 9.01443C26.1163 9.35624 26.0001 9.76433 26 10.1827V12.201C25.3804 11.8021 24.8962 11.1862 24.6224 10.4491C24.3486 9.71186 24.3006 8.8945 24.4858 8.12376C24.6709 7.35301 25.079 6.67197 25.6466 6.18628C26.2142 5.70058 26.9096 5.43738 27.625 5.4375ZM23.0278 10.875H20.3125C19.8815 10.875 19.4682 10.684 19.1635 10.3441C18.8587 10.0042 18.6875 9.54321 18.6875 9.0625C18.6875 8.5818 18.8587 8.12078 19.1635 7.78087C19.4682 7.44096 19.8815 7.25 20.3125 7.25H23.0295C22.6574 8.42258 22.6568 9.70197 23.0278 10.875ZM14.972 3.625H21.125V4.04593C21.1258 4.54925 20.9769 5.03865 20.7016 5.4375H20.3125C19.5953 5.43688 18.8983 5.70231 18.3311 6.192C18.0598 6.07718 17.8134 5.89953 17.6082 5.67076L16.8245 4.7967C16.6917 4.64857 16.517 4.55633 16.3301 4.53569C16.1432 4.51505 15.9556 4.56727 15.7993 4.68347L14.1276 5.92652L13.9349 5.49658C13.8465 5.2994 13.8048 5.08031 13.8137 4.86009C13.8226 4.63987 13.8818 4.42584 13.9857 4.23832C14.0896 4.05081 14.2348 3.89603 14.4074 3.78869C14.58 3.68134 14.7744 3.625 14.972 3.625ZM14.6247 7.73525L16.1465 6.60367L16.4591 6.95236C16.7119 7.23437 17 7.47382 17.3146 7.66318C17.0192 8.44972 16.9822 9.32733 17.21 10.1414C17.4379 10.9554 17.916 11.6536 18.5601 12.113C18.2001 12.4261 17.7685 12.6201 17.3144 12.6728C16.8604 12.7256 16.4021 12.6351 15.992 12.4116C15.5818 12.1881 15.2361 11.8406 14.9944 11.4087C14.7526 10.9767 14.6245 10.4777 14.6247 9.96853V7.73525ZM3.25 22.428C3.25189 20.5663 3.91575 18.7816 5.09594 17.4652C6.27614 16.1488 7.87629 15.4084 9.54534 15.4063H11.4992L12.1986 20.0865C12.2215 20.24 12.2795 20.3843 12.3669 20.5056C12.4544 20.6268 12.5683 20.7209 12.6978 20.7787C12.8273 20.8366 12.968 20.8563 13.1063 20.836C13.2446 20.8156 13.3759 20.7559 13.4875 20.6625L14.1859 20.0782L14.5926 20.9855L14.2075 23.5626L10.2488 20.1284L9.25117 21.5591L16.5637 27.9029C16.6488 27.9768 16.7464 28.031 16.8505 28.0624C16.9547 28.0938 17.0634 28.1017 17.1704 28.0857C17.2773 28.0698 17.3803 28.0302 17.4734 27.9693C17.5665 27.9084 17.6478 27.8275 17.7125 27.7312L26.306 14.9512L30.2082 18.0601L21.8266 32.083C21.3245 32.9231 20.672 33.6383 19.9102 34.1837C19.1484 34.729 18.2937 35.0928 17.3998 35.2521C16.5059 35.4113 15.5921 35.3627 14.7159 35.1092C13.8396 34.8557 13.0199 34.4029 12.3081 33.7791L5.65592 27.9493C4.90415 27.2943 4.29657 26.4564 3.87958 25.4995C3.4626 24.5425 3.24725 23.4919 3.25 22.428ZM24.375 39.875H5.6875V30.282L11.3041 35.2043C12.1921 35.9825 13.2148 36.5474 14.3079 36.8637C15.401 37.1799 16.541 37.2406 17.6561 37.0419C18.7713 36.8432 19.8375 36.3894 20.7879 35.709C21.7383 35.0286 22.5523 34.1364 23.1787 33.0884L24.375 31.0868V39.875ZM38.5683 26.0667C38.0676 26.9666 37.3687 27.7087 36.5381 28.2221C35.7076 28.7356 34.773 29.0034 33.8234 29C32.6132 28.9972 31.4359 28.5595 30.4662 27.7518L27.7343 25.4665L31.2361 19.6078L34.4299 22.4577C34.5216 22.5394 34.628 22.5981 34.7419 22.6296C34.8558 22.6611 34.9744 22.6647 35.0897 22.6402C35.205 22.6157 35.3141 22.5636 35.4096 22.4876C35.5051 22.4115 35.5847 22.3133 35.6429 22.1996L38.4898 16.6427L42.4387 19.1596L38.5683 26.0667ZM43.3006 17.6214L41.247 16.3125H43.875C43.9292 16.3125 43.9827 16.3094 44.0366 16.3079L43.3006 17.6214ZM43.875 14.5C42.9108 14.5 41.9683 14.1811 41.1666 13.5836C40.3649 12.9861 39.7401 12.1369 39.3711 11.1433C39.0021 10.1498 38.9056 9.05647 39.0937 8.0017C39.2818 6.94693 39.7461 5.97806 40.4279 5.21761C41.1096 4.45716 41.9783 3.93929 42.9239 3.72948C43.8696 3.51967 44.8498 3.62735 45.7406 4.03891C46.6314 4.45046 47.3927 5.1474 47.9284 6.04159C48.4641 6.93578 48.75 7.98707 48.75 9.0625C48.7485 10.5041 48.2345 11.8862 47.3205 12.9056C46.4066 13.925 45.1675 14.4984 43.875 14.5Z" fill="#14BBEA"/>
</svg>
