<svg width="62" height="62" viewBox="0 0 62 62" fill="none" xmlns="http://www.w3.org/2000/svg">
<path d="M59.0938 58.125H54.25V29.0625C54.25 28.8056 54.1479 28.5592 53.9663 28.3775C53.7846 28.1958 53.5382 28.0938 53.2812 28.0938H47.4688C47.2118 28.0938 46.9654 28.1958 46.7837 28.3775C46.6021 28.5592 46.5 28.8056 46.5 29.0625V58.125H44.5625V36.8125C44.5625 36.5556 44.4604 36.3092 44.2788 36.1275C44.0971 35.9458 43.8507 35.8438 43.5938 35.8438H37.7812C37.5243 35.8438 37.2779 35.9458 37.0962 36.1275C36.9146 36.3092 36.8125 36.5556 36.8125 36.8125V58.125H34.875V33.9062C34.875 33.6493 34.7729 33.4029 34.5913 33.2212C34.4096 33.0396 34.1632 32.9375 33.9062 32.9375H28.0938C27.8368 32.9375 27.5904 33.0396 27.4087 33.2212C27.2271 33.4029 27.125 33.6493 27.125 33.9062V58.125H25.1875V37.7812C25.1875 37.5243 25.0854 37.2779 24.9038 37.0962C24.7221 36.9146 24.4757 36.8125 24.2188 36.8125H18.4062C18.1493 36.8125 17.9029 36.9146 17.7212 37.0962C17.5396 37.2779 17.4375 37.5243 17.4375 37.7812V58.125H15.5V41.6562C15.5 41.3993 15.3979 41.1529 15.2163 40.9712C15.0346 40.7896 14.7882 40.6875 14.5312 40.6875H8.71875C8.46182 40.6875 8.21542 40.7896 8.03374 40.9712C7.85206 41.1529 7.75 41.3993 7.75 41.6562V58.125H2.90625C2.64932 58.125 2.40292 58.2271 2.22124 58.4087C2.03956 58.5904 1.9375 58.8368 1.9375 59.0938C1.9375 59.3507 2.03956 59.5971 2.22124 59.7788C2.40292 59.9604 2.64932 60.0625 2.90625 60.0625H59.0938C59.3507 60.0625 59.5971 59.9604 59.7788 59.7788C59.9604 59.5971 60.0625 59.3507 60.0625 59.0938C60.0625 58.8368 59.9604 58.5904 59.7788 58.4087C59.5971 58.2271 59.3507 58.125 59.0938 58.125ZM9.6875 58.125V42.625H13.5625V58.125H9.6875ZM19.375 58.125V38.75H23.25V58.125H19.375ZM29.0625 58.125V34.875H32.9375V58.125H29.0625ZM38.75 58.125V37.7812H42.625V58.125H38.75ZM48.4375 58.125V30.0312H52.3125V58.125H48.4375Z" fill="#14BBEA"/>
<path d="M4.8437 39.719C4.97474 39.719 5.10439 39.6923 5.22478 39.6405L9.48934 37.8129C9.88542 38.2433 10.4022 38.5441 10.9721 38.6759C11.542 38.8077 12.1383 38.7644 12.6832 38.5516C13.228 38.3389 13.6959 37.9666 14.0257 37.4834C14.3554 37.0003 14.5316 36.4289 14.5312 35.844C14.5312 35.8044 14.5297 35.7653 14.5282 35.726L19.1297 33.8854C19.5192 34.33 20.0349 34.6451 20.6082 34.7888C21.1814 34.9326 21.7849 34.898 22.3379 34.6897C22.891 34.4814 23.3674 34.1094 23.7034 33.6232C24.0395 33.1371 24.2193 32.56 24.2187 31.969C24.2187 31.9294 24.2173 31.8903 24.2157 31.851L28.8172 30.0104C29.1039 30.3378 29.4605 30.5965 29.8607 30.7673C30.2609 30.9382 30.6943 31.0168 31.129 30.9975C31.5637 30.9781 31.9885 30.8613 32.3719 30.6555C32.7553 30.4498 33.0875 30.1604 33.344 29.8089L37.7842 31.141C37.8045 31.5672 37.9184 31.9838 38.1178 32.3611C38.3173 32.7384 38.5973 33.0672 38.9382 33.324C39.279 33.5808 39.6722 33.7595 40.0899 33.8472C40.5075 33.9349 40.9394 33.9296 41.3547 33.8315C41.7701 33.7335 42.1587 33.5452 42.4931 33.28C42.8275 33.0149 43.0993 32.6793 43.2894 32.2972C43.4794 31.9151 43.583 31.4958 43.5927 31.0691C43.6024 30.6425 43.518 30.2189 43.3456 29.8285L48.7827 24.7112C49.3284 25.0695 49.9788 25.2335 50.6291 25.1768C51.2795 25.1201 51.8917 24.8459 52.367 24.3985C52.8424 23.9511 53.1531 23.3566 53.2492 22.7109C53.3452 22.0652 53.2209 21.406 52.8962 20.8396L56.1875 17.7423V18.4065C56.1875 18.6634 56.2895 18.9098 56.4712 19.0915C56.6529 19.2732 56.8993 19.3752 57.1562 19.3752C57.4131 19.3752 57.6595 19.2732 57.8412 19.0915C58.0229 18.9098 58.125 18.6634 58.125 18.4065V15.5002C58.125 15.2433 58.0229 14.9969 57.8412 14.8152C57.6595 14.6336 57.4131 14.5315 57.1562 14.5315H54.25C53.993 14.5315 53.7466 14.6336 53.5649 14.8152C53.3833 14.9969 53.2812 15.2433 53.2812 15.5002C53.2812 15.7572 53.3833 16.0036 53.5649 16.1853C53.7466 16.3669 53.993 16.469 54.25 16.469H54.7135L51.4188 19.5698C50.908 19.373 50.352 19.3244 49.8148 19.4297C49.2777 19.535 48.7812 19.7899 48.3825 20.1651C47.9839 20.5402 47.6993 21.0204 47.5617 21.5502C47.424 22.08 47.4388 22.6379 47.6043 23.1597L42.0175 28.4178C41.4023 28.0998 40.6935 28.0124 40.0195 28.1716C39.3454 28.3308 38.7506 28.7259 38.3426 29.2856L33.9023 27.9535C33.8633 27.1975 33.5309 26.4866 32.9757 25.9719C32.4205 25.4573 31.6865 25.1796 30.9297 25.1979C30.1729 25.2162 29.4531 25.529 28.9235 26.0699C28.3938 26.6108 28.0961 27.337 28.0937 28.094C28.0937 28.1336 28.0952 28.1728 28.0967 28.2119L23.4952 30.0526C23.1058 29.608 22.59 29.2928 22.0167 29.1491C21.4435 29.0054 20.84 29.04 20.287 29.2483C19.7339 29.4566 19.2575 29.8286 18.9215 30.3148C18.5854 30.8009 18.4057 31.378 18.4062 31.969C18.4062 32.0086 18.4077 32.0477 18.4092 32.0869L13.8077 33.9276C13.4183 33.483 12.9025 33.1678 12.3292 33.0241C11.756 32.8804 11.1525 32.915 10.5995 33.1233C10.0464 33.3316 9.57002 33.7036 9.23396 34.1898C8.89791 34.6759 8.71815 35.253 8.7187 35.844C8.7187 35.9074 8.72149 35.9702 8.72548 36.0327L4.46214 37.8597C4.257 37.9476 4.08849 38.1035 3.98507 38.3013C3.88166 38.499 3.84967 38.7264 3.89453 38.945C3.9394 39.1636 4.05835 39.36 4.23129 39.501C4.40423 39.642 4.62055 39.719 4.8437 39.719ZM50.375 21.3127C50.5666 21.3127 50.7539 21.3696 50.9132 21.476C51.0725 21.5825 51.1966 21.7338 51.27 21.9108C51.3433 22.0878 51.3625 22.2826 51.3251 22.4705C51.2877 22.6584 51.1954 22.831 51.06 22.9665C50.9245 23.102 50.7519 23.1943 50.5639 23.2316C50.376 23.269 50.1812 23.2498 50.0042 23.1765C49.8272 23.1032 49.6759 22.979 49.5695 22.8197C49.463 22.6604 49.4062 22.4731 49.4062 22.2815C49.4065 22.0247 49.5086 21.7784 49.6903 21.5968C49.8719 21.4152 50.1181 21.313 50.375 21.3127ZM40.6875 30.0315C40.8791 30.0315 41.0664 30.0883 41.2257 30.1948C41.385 30.3012 41.5091 30.4525 41.5825 30.6295C41.6558 30.8065 41.675 31.0013 41.6376 31.1892C41.6002 31.3772 41.5079 31.5498 41.3725 31.6853C41.237 31.8207 41.0644 31.913 40.8764 31.9504C40.6885 31.9878 40.4937 31.9686 40.3167 31.8953C40.1397 31.8219 39.9884 31.6978 39.882 31.5385C39.7755 31.3791 39.7187 31.1918 39.7187 31.0002C39.719 30.7434 39.8211 30.4972 40.0028 30.3156C40.1844 30.1339 40.4306 30.0318 40.6875 30.0315ZM31 27.1252C31.1916 27.1252 31.3789 27.1821 31.5382 27.2885C31.6975 27.395 31.8216 27.5463 31.895 27.7233C31.9683 27.9003 31.9875 28.0951 31.9501 28.283C31.9127 28.4709 31.8204 28.6435 31.685 28.779C31.5495 28.9145 31.3769 29.0068 31.1889 29.0441C31.001 29.0815 30.8062 29.0623 30.6292 28.989C30.4522 28.9157 30.3009 28.7915 30.1945 28.6322C30.088 28.4729 30.0312 28.2856 30.0312 28.094C30.0315 27.8372 30.1336 27.5909 30.3153 27.4093C30.4969 27.2277 30.7431 27.1255 31 27.1252ZM21.3125 31.0002C21.5041 31.0002 21.6914 31.0571 21.8507 31.1635C22.01 31.27 22.1341 31.4213 22.2075 31.5983C22.2808 31.7753 22.3 31.9701 22.2626 32.158C22.2252 32.3459 22.1329 32.5185 21.9975 32.654C21.862 32.7895 21.6894 32.8818 21.5014 32.9191C21.3135 32.9565 21.1187 32.9373 20.9417 32.864C20.7647 32.7907 20.6134 32.6665 20.507 32.5072C20.4005 32.3479 20.3437 32.1606 20.3437 31.969C20.344 31.7122 20.4461 31.4659 20.6278 31.2843C20.8094 31.1027 21.0556 31.0005 21.3125 31.0002ZM11.625 34.8752C11.8166 34.8752 12.0039 34.9321 12.1632 35.0385C12.3225 35.145 12.4466 35.2963 12.52 35.4733C12.5933 35.6503 12.6125 35.8451 12.5751 36.033C12.5377 36.2209 12.4454 36.3935 12.31 36.529C12.1745 36.6645 12.0019 36.7568 11.8139 36.7941C11.626 36.8315 11.4312 36.8123 11.2542 36.739C11.0772 36.6657 10.9259 36.5415 10.8195 36.3822C10.713 36.2229 10.6562 36.0356 10.6562 35.844C10.6565 35.5872 10.7586 35.3409 10.9403 35.1593C11.1219 34.9777 11.3681 34.8755 11.625 34.8752Z" fill="#14BBEA"/>
<path d="M22.333 25.9325C22.531 26.0931 22.7842 26.1693 23.0379 26.1445C23.2916 26.1196 23.5253 25.9958 23.6884 25.7998C23.8514 25.6038 23.9306 25.3515 23.9088 25.0975C23.887 24.8435 23.766 24.6084 23.5719 24.443C22.7836 23.7875 22.0849 23.0311 21.4941 22.1932H25.7369C25.9053 22.966 26.1028 23.7338 26.3294 24.4964C26.3652 24.619 26.425 24.7332 26.5052 24.8326C26.5854 24.932 26.6844 25.0145 26.7966 25.0755C26.9088 25.1364 27.0319 25.1746 27.1589 25.1878C27.286 25.201 27.4143 25.189 27.5367 25.1524C27.659 25.1158 27.7729 25.0554 27.8718 24.9747C27.9707 24.8939 28.0527 24.7944 28.113 24.6818C28.1733 24.5693 28.2108 24.4459 28.2232 24.3188C28.2357 24.1917 28.2229 24.0634 28.1856 23.9413C28.0125 23.3622 27.858 22.7795 27.7223 22.1932H34.2772C34.1406 22.7791 33.9862 23.3618 33.8141 23.9413C33.7768 24.0634 33.764 24.1917 33.7764 24.3188C33.7889 24.4459 33.8264 24.5693 33.8867 24.6818C33.947 24.7944 34.0289 24.8939 34.1279 24.9747C34.2268 25.0554 34.3407 25.1158 34.463 25.1524C34.5853 25.189 34.7137 25.201 34.8407 25.1878C34.9677 25.1746 35.0909 25.1364 35.2031 25.0755C35.3153 25.0145 35.4143 24.932 35.4945 24.8326C35.5747 24.7332 35.6344 24.619 35.6703 24.4964C35.8982 23.7343 36.0957 22.9666 36.2629 22.1932H40.5091C40.0768 22.8034 39.5876 23.371 39.0478 23.8885C38.8625 24.0664 38.7553 24.3107 38.75 24.5676C38.7447 24.8245 38.8417 25.0729 39.0196 25.2583C39.1975 25.4437 39.4418 25.5508 39.6987 25.5561C39.9556 25.5614 40.2041 25.4645 40.3894 25.2865C41.714 24.0249 42.7673 22.5062 43.4848 20.8235C44.2024 19.1408 44.569 17.3294 44.5625 15.5001C44.5583 12.3572 43.4646 9.31297 41.4675 6.88609C39.4705 4.45921 36.6938 2.79983 33.6105 2.1907C33.5848 2.18476 33.5588 2.17968 33.5325 2.1758C30.5785 1.61406 27.5216 2.04991 24.8423 3.41485C22.1631 4.77979 20.0133 6.99641 18.7311 9.71626C17.4489 12.4361 17.107 15.5049 17.759 18.4403C18.411 21.3757 20.02 24.0112 22.333 25.9325ZM20.696 20.2557C20.5989 20.2556 20.5024 20.2702 20.4097 20.2988C19.8611 19.0886 19.5247 17.7931 19.415 16.4689H25.0311C25.0701 17.737 25.1858 19.0016 25.3776 20.2557H20.696ZM20.9877 9.59945H25.575C25.2643 11.2266 25.0828 12.8757 25.032 14.5314H19.4156C19.5595 12.7896 20.0971 11.1032 20.9877 9.59945ZM42.5843 14.5314H36.9685C36.9175 12.8756 36.7357 11.2265 36.425 9.59945H41.0126C41.9031 11.1033 42.4405 12.7896 42.5843 14.5314ZM35.0303 14.5314H26.97C27.0246 12.874 27.2189 11.2242 27.5506 9.59945H34.45C34.7817 11.2242 34.9758 12.874 35.0303 14.5314ZM27.3388 20.2557C27.1343 19.0027 27.011 17.7378 26.9697 16.4689H35.0306C34.9891 17.7378 34.8657 19.0027 34.6612 20.2557H27.3388ZM41.3039 20.2557H36.6227C36.8146 19.0016 36.9302 17.737 36.969 16.4689H42.585C42.4789 17.7937 42.1444 19.0902 41.5964 20.301C41.5018 20.2709 41.4032 20.2557 41.3039 20.2557ZM39.5774 7.66195H35.99C35.723 6.6244 35.4031 5.6012 35.0315 4.59635C36.7689 5.24251 38.3272 6.29341 39.5774 7.66195ZM32.7114 4.00129C33.216 5.1922 33.6416 6.41507 33.9854 7.66195H28.0155C28.3592 6.41505 28.7848 5.19217 29.2895 4.00129C30.424 3.83305 31.5771 3.83305 32.7116 4.00129H32.7114ZM26.9693 4.5961C26.5974 5.60099 26.2772 6.62429 26.01 7.66195H22.4225C23.6729 6.29321 25.2316 5.24221 26.9692 4.5961H26.9693Z" fill="#14BBEA"/>
</svg>
