<svg width="58" height="58" viewBox="0 0 58 58" fill="none" xmlns="http://www.w3.org/2000/svg">
<g clip-path="url(#clip0_63_669)">
<path d="M38.7369 37.1967C37.3627 37.1967 36.2447 36.2291 36.2447 35.0397C36.2447 33.8503 37.3627 32.8826 38.7369 32.8826C40.1111 32.8826 41.2291 33.8503 41.2291 35.0397C41.2291 35.6653 41.7364 36.1726 42.3619 36.1726C42.9875 36.1726 43.4947 35.6653 43.4947 35.0397C43.4947 32.9639 41.948 31.2184 39.8697 30.7447V30.1555C39.8697 29.53 39.3625 29.0227 38.7369 29.0227C38.1114 29.0227 37.6041 29.53 37.6041 30.1555V30.7447C35.5259 31.2184 33.9791 32.9639 33.9791 35.0397C33.9791 37.4783 36.1135 39.4623 38.7369 39.4623C40.1111 39.4623 41.2291 40.43 41.2291 41.6194C41.2291 42.8089 40.1111 43.7765 38.7369 43.7765C37.3627 43.7765 36.2447 42.8089 36.2447 41.6194C36.2447 40.9939 35.7375 40.4866 35.1119 40.4866C34.4864 40.4866 33.9791 40.9939 33.9791 41.6194C33.9791 43.6953 35.5259 45.4408 37.6041 45.9145V46.4039C37.6041 47.0294 38.1114 47.5367 38.7369 47.5367C39.3625 47.5367 39.8697 47.0294 39.8697 46.4039V45.9145C41.948 45.4408 43.4947 43.6953 43.4947 41.6194C43.4947 39.1807 41.3604 37.1967 38.7369 37.1967Z" fill="#14BBEA"/>
<path d="M51.1443 30.4586C49.6646 28.1527 47.5797 26.3076 45.1153 25.1229C44.5513 24.8517 43.8744 25.0892 43.6035 25.6531C43.3324 26.217 43.5697 26.8937 44.1336 27.1648C48.4282 29.2292 51.203 33.6403 51.203 38.4024C51.203 40.4401 50.7007 42.4609 49.7506 44.2467C49.4568 44.7989 49.6663 45.485 50.2186 45.7788C50.3881 45.869 50.5702 45.9118 50.7497 45.9118C51.155 45.9118 51.5471 45.6936 51.7507 45.3109C52.8746 43.1988 53.4686 40.8099 53.4686 38.4024C53.4686 35.5749 52.6649 32.828 51.1443 30.4586Z" fill="#14BBEA"/>
<path d="M40.5175 23.6759L40.4413 23.6758C39.8157 23.6758 39.3085 24.1829 39.3085 24.8086C39.3085 25.4342 39.8157 25.9414 40.4413 25.9414L40.5069 25.9415C40.5087 25.9415 40.5104 25.9415 40.5123 25.9415C41.1355 25.9415 41.6421 25.4379 41.645 24.814C41.6478 24.1884 41.1431 23.6788 40.5175 23.6759Z" fill="#14BBEA"/>
<path d="M33.3508 49.64C29.0563 47.5755 26.2815 43.1644 26.2815 38.4024C26.2815 36.3647 26.7838 34.3439 27.7339 32.5582C28.0277 32.0059 27.8183 31.3199 27.2659 31.026C26.7138 30.7322 26.0275 30.9416 25.7338 31.494C24.6099 33.6061 24.0159 35.995 24.0159 38.4024C24.0159 41.2299 24.8196 43.9768 26.3402 46.3463C27.82 48.6521 29.9048 50.4972 32.3692 51.682C32.5275 51.7582 32.6947 51.7941 32.8593 51.7941C33.2811 51.7941 33.686 51.5574 33.8811 51.1519C34.1519 50.588 33.9147 49.9111 33.3508 49.64Z" fill="#14BBEA"/>
<path d="M37.0431 50.8633L36.9775 50.863C36.349 50.8619 35.8424 51.3648 35.8396 51.9905C35.8367 52.6162 36.3417 53.1257 36.9672 53.1287L37.0431 53.1289C37.6687 53.1289 38.1759 52.6216 38.1759 51.9961C38.1759 51.3705 37.6687 50.8633 37.0431 50.8633Z" fill="#14BBEA"/>
<path d="M43.8861 19.8432C43.7482 19.5147 43.5793 19.2051 43.3828 18.9179H46.3319C49.2052 18.9179 51.5429 16.5803 51.5429 13.707C51.5429 10.8337 49.2052 8.49608 46.3319 8.49608H37.2604C37.8371 7.65757 38.1757 6.64314 38.1757 5.55077C38.1757 2.67751 35.838 0.339844 32.9648 0.339844H5.21093C2.33767 0.339844 0 2.67751 0 5.55077C0 8.42403 2.33767 10.7617 5.21093 10.7617H14.2825C13.7058 11.6002 13.3672 12.6146 13.3672 13.707C13.3672 14.7994 13.7056 15.8138 14.2825 16.6523H11.3281C8.45484 16.6523 6.11718 18.99 6.11718 21.8632C6.11718 23.5134 6.88907 24.9859 8.08996 25.9414C6.88907 26.8968 6.11718 28.3693 6.11718 30.0195C6.11718 31.6696 6.88907 33.1422 8.08996 34.0976C6.88907 35.053 6.11718 36.5256 6.11718 38.1757C6.11718 39.8259 6.88907 41.2984 8.08996 42.2538C6.88907 43.2092 6.11718 44.6818 6.11718 46.332C6.11718 49.2052 8.45484 51.5429 11.3281 51.5429H24.6783C28.1952 55.3046 33.1984 57.6602 38.7422 57.6602C49.361 57.6602 58 49.0211 58 38.4024C58 29.5645 52.0154 22.0992 43.8861 19.8432ZM46.3319 10.7617C47.9561 10.7617 49.2772 12.083 49.2772 13.707C49.2772 15.331 47.9561 16.6523 46.3319 16.6523H39.082H18.5781C16.954 16.6523 15.6328 15.331 15.6328 13.707C15.6328 12.083 16.954 10.7617 18.5781 10.7617H46.3319ZM5.21093 8.49608C3.58682 8.49608 2.26562 7.17477 2.26562 5.55077C2.26562 3.92677 3.58682 2.60546 5.21093 2.60546H32.9648C34.5889 2.60546 35.9101 3.92677 35.9101 5.55077C35.9101 7.17477 34.5889 8.49608 32.9648 8.49608H5.21093ZM11.3281 18.9179H39.082C39.5383 18.9179 39.9752 19.024 40.3671 19.2138C39.8313 19.1689 39.2896 19.1446 38.7422 19.1446C33.4242 19.1446 28.603 21.3116 25.1146 24.8085H11.3281C9.70411 24.8085 8.3828 23.4872 8.3828 21.8632C8.3828 20.2392 9.70411 18.9179 11.3281 18.9179ZM11.3281 27.0742H23.179C21.893 28.836 20.8988 30.8232 20.2673 32.9648H11.3281C9.70399 32.9648 8.3828 31.6436 8.3828 30.0195C8.3828 28.3955 9.70399 27.0742 11.3281 27.0742ZM11.3281 35.2304H19.7472C19.5753 36.2627 19.4845 37.322 19.4845 38.4024C19.4845 39.3252 19.5512 40.2326 19.6773 41.121H11.3281C9.70399 41.121 8.3828 39.7998 8.3828 38.1757C8.3828 36.5516 9.70399 35.2304 11.3281 35.2304ZM11.3281 49.2773C9.70399 49.2773 8.3828 47.9561 8.3828 46.332C8.3828 44.7078 9.70399 43.3866 11.3281 43.3866H20.1398C20.7114 45.5178 21.64 47.504 22.8577 49.2773H11.3281ZM38.7422 55.3945C29.3728 55.3945 21.7501 47.7719 21.7501 38.4024C21.7501 29.0329 29.3728 21.4102 38.7422 21.4102C48.1117 21.4102 55.7344 29.0329 55.7344 38.4024C55.7344 47.7719 48.1117 55.3945 38.7422 55.3945Z" fill="#14BBEA"/>
</g>
<defs>
<clipPath id="clip0_63_669">
<rect width="58" height="58" fill="white"/>
</clipPath>
</defs>
</svg>
